<?xml version="1.0" encoding="UTF-8"?>
<svg width="117px" height="75px" viewBox="0 0 117 75" version="1.1" xmlns="http://www.w3.org/2000/svg" xmlns:xlink="http://www.w3.org/1999/xlink">
    <!-- Generator: Sketch 56.3 (81716) - https://sketch.com -->
    <title>logoq</title>
    <desc>Created with Sketch.</desc>
    <g id="Page-1" stroke="none" stroke-width="1" fill="none" fill-rule="evenodd">
        <g id="Desktop-HD-Copy" transform="translate(-175.000000, -72.000000)">
            <g id="logoq" transform="translate(175.000000, 72.000000)">
                <g id="Group" transform="translate(76.013514, 52.702703)" fill="#4C4C4C" fill-rule="nonzero">
                    <path d="M4.52815891,4.79054054 L2.14376605,4.79054054 L1.68792624,5.8976834 L0.0749546055,5.8976834 L2.56454126,0.147683398 L4.1424483,0.147683398 L6.63203496,5.8976834 L4.98399872,5.8976834 L4.52815891,4.79054054 Z M4.0723191,3.57625483 L3.33596248,1.71911197 L2.59960587,3.57625483 L4.0723191,3.57625483 Z" id="Shape"></path>
                    <path d="M7.08787477,0.147683398 L9.75278444,0.147683398 C10.3839473,0.147683398 10.9099163,0.254826255 11.4008207,0.504826255 C11.8917251,0.754826255 12.2423711,1.07625483 12.5228879,1.50482625 C12.8034047,1.93339768 12.9085985,2.43339768 12.9085985,3.04054054 C12.9085985,3.6476834 12.7683401,4.11196911 12.5228879,4.57625483 C12.2774357,5.04054054 11.8917251,5.32625483 11.4008207,5.57625483 C10.9099163,5.82625483 10.3839473,5.93339768 9.75278444,5.93339768 L7.08787477,5.93339768 L7.08787477,0.147683398 Z M9.68265524,4.61196911 C10.1735596,4.61196911 10.5592703,4.46911197 10.8397871,4.18339768 C11.1203039,3.8976834 11.2956269,3.50482625 11.2956269,3.04054054 C11.2956269,2.57625483 11.1553685,2.1476834 10.8397871,1.8976834 C10.5242057,1.6476834 10.1735596,1.46911197 9.68265524,1.46911197 L8.66578181,1.46911197 L8.66578181,4.61196911 L9.68265524,4.61196911 L9.68265524,4.61196911 Z" id="Shape"></path>
                    <path d="M14.3813117,5.86196911 C13.9605365,5.75482625 13.6098905,5.57625483 13.3293737,5.3976834 L13.8553427,4.18339768 C14.1007949,4.36196911 14.4163763,4.50482625 14.7319578,4.57625483 C15.0826038,4.68339768 15.3981852,4.71911197 15.7137666,4.71911197 C16.3098648,4.71911197 16.6254462,4.57625483 16.6254462,4.25482625 C16.6254462,4.07625483 16.555317,3.96911197 16.379994,3.8976834 C16.204671,3.82625483 15.9241542,3.71911197 15.5384436,3.6476834 C15.1176684,3.54054054 14.7670224,3.46911197 14.4865055,3.36196911 C14.2059887,3.25482625 13.9605365,3.07625483 13.7501489,2.86196911 C13.5397613,2.61196911 13.4345675,2.32625483 13.4345675,1.8976834 C13.4345675,1.54054054 13.5397613,1.21911197 13.7150843,0.933397683 C13.8904073,0.647683398 14.1709241,0.433397683 14.5566348,0.254826255 C14.9423454,0.0762548263 15.3981852,0.00482625483 15.9241542,0.00482625483 C16.3098648,0.00482625483 16.6605108,0.0405405405 17.0111568,0.147683398 C17.3618028,0.219111969 17.6773842,0.361969112 17.957901,0.504826255 L17.4669966,1.71911197 C16.9410276,1.43339768 16.4150586,1.29054054 15.8890896,1.29054054 C15.5735082,1.29054054 15.328056,1.32625483 15.1877976,1.43339768 C15.0475392,1.54054054 14.97741,1.6476834 14.97741,1.79054054 C14.97741,1.93339768 15.0475392,2.07625483 15.2228622,2.1476834 C15.3981852,2.21911197 15.678702,2.29054054 16.0644126,2.3976834 C16.4851878,2.50482625 16.8358338,2.57625483 17.1163506,2.68339768 C17.3968674,2.79054054 17.6423196,2.96911197 17.8527072,3.18339768 C18.0630948,3.3976834 18.1682886,3.71911197 18.1682886,4.1476834 C18.1682886,4.50482625 18.0630948,4.79054054 17.8877718,5.07625483 C17.7124488,5.36196911 17.431932,5.57625483 17.0462214,5.75482625 C16.6605108,5.93339768 16.204671,6.00482625 15.678702,6.00482625 C15.2579268,6.00482625 14.8371516,5.96911197 14.3813117,5.86196911 Z" id="Path"></path>
                </g>
                <g id="Group-3" transform="translate(44.594595, 0.000000)" fill="#FF6500">
                    <path d="M3.07886244,65.0879137 L49.6198064,69.7684356 C53.0566761,70.1230206 56.2429407,67.8536766 56.9589552,64.4851192 L65.0141186,27.466446 C65.5869302,24.7716001 63.8684954,22.1476711 61.1834409,21.5803352 C60.8612344,21.5094182 60.5032271,21.4739597 60.1810206,21.4739597 L0,20.9066237 L0,20.8357067 L65.0499193,16.1551848 C65.7659338,16.1197263 66.4819484,16.1551848 67.1979629,16.3324773 C70.849637,17.2543983 72.4607031,20.6217456 71.5298842,24.2385126 L60.8829021,69.7684356 C59.7934397,73.6968456 56.3145422,75.477254 52.7702703,74.768084 L3.07886244,65.0879137 Z" id="Combined-Shape-Copy"></path>
                    <path d="M21.7310407,19.5237422 L19.7620008,20.1265367 L10.8118193,0.553445123 C10.7402178,0.376152627 10.8118193,0.127943132 10.9908229,0.0570261339 C10.9908229,0.0570261339 11.0266236,0.0570261339 11.0266236,0.0215676347 C11.2772287,-0.0493493637 11.5278338,0.0570261339 11.6710367,0.305235628 L21.7310407,19.5237422 Z" id="Line-2-Copy-2"></path>
                    <path d="M24.8815046,20.0201612 L27.9516537,19.4577946 L31.3256353,4.56025554 C31.3614361,4.45388004 31.2671446,4.26884153 31.0971966,4.26884153 C30.8473506,4.26884153 30.7528237,4.38296304 30.6812223,4.56025554 L24.8815046,20.0201612 Z" id="Line-2-Copy-3"></path>
                </g>
                <g id="Group" transform="translate(0.000000, 32.432432)" fill="#4C4C4C" fill-rule="nonzero">
                    <polygon id="Path" points="0.147969815 0.296638102 4.10783185 0.296638102 4.10783185 11.568886 10.7789508 11.568886 10.7789508 14.8319051 0.147969815 14.8319051"></polygon>
                    <path d="M15.2025805,14.1644693 C14.0253242,13.4970336 13.0977889,12.6071193 12.4199747,11.4576467 C11.7421605,10.308174 11.4210906,9.01038233 11.4210906,7.56427159 C11.4210906,6.11816084 11.7421605,4.82036915 12.4199747,3.67089651 C13.0977889,2.52142386 14.0253242,1.63150956 15.2025805,0.96407383 C16.3798367,0.296638102 17.6997907,0 19.1981169,0 C20.6964431,0 22.0163971,0.333717864 23.1936534,0.96407383 C24.3709097,1.63150956 25.2984449,2.52142386 25.9762592,3.67089651 C26.6540734,4.82036915 26.9751433,6.11816084 26.9751433,7.56427159 C26.9751433,9.01038233 26.6540734,10.308174 25.9762592,11.4576467 C25.2984449,12.6071193 24.3709097,13.4970336 23.1936534,14.1644693 C22.0163971,14.8319051 20.6964431,15.1285432 19.1981169,15.1285432 C17.6997907,15.1285432 16.3798367,14.7948253 15.2025805,14.1644693 Z M21.0888619,11.1980883 C21.6596528,10.8643705 22.1234204,10.3823336 22.4444903,9.75197759 C22.7655602,9.12162162 22.9439324,8.41710613 22.9439324,7.56427159 C22.9439324,6.71143705 22.7655602,6.00692156 22.4444903,5.37656559 C22.1234204,4.74620962 21.6596528,4.26417271 21.0888619,3.93045485 C20.5180709,3.59673698 19.8759311,3.41133817 19.1624425,3.41133817 C18.4489538,3.41133817 17.806814,3.59673698 17.2360231,3.93045485 C16.6652322,4.26417271 16.2014646,4.74620962 15.8803947,5.37656559 C15.5593248,6.00692156 15.3809526,6.71143705 15.3809526,7.56427159 C15.3809526,8.41710613 15.5593248,9.12162162 15.8803947,9.75197759 C16.2014646,10.3823336 16.6652322,10.8643705 17.2360231,11.1980883 C17.806814,11.5318062 18.4489538,11.717205 19.1624425,11.717205 C19.8759311,11.717205 20.5180709,11.568886 21.0888619,11.1980883 Z" id="Shape"></path>
                    <path d="M32.0409127,14.1644693 C30.8636564,13.5341134 29.9717956,12.6071193 29.2939814,11.4576467 C28.6161672,10.308174 28.2950973,9.01038233 28.2950973,7.56427159 C28.2950973,6.11816084 28.6161672,4.82036915 29.2939814,3.67089651 C29.9717956,2.52142386 30.8636564,1.63150956 32.0409127,0.96407383 C33.218169,0.333717864 34.538123,0 36.0007748,0 C37.2850543,0 38.4266362,0.222478576 39.4611947,0.704515491 C40.4957533,1.18655241 41.3519397,1.85398813 42.0297539,2.74390244 L39.4968692,5.11700725 C38.6050084,3.96753461 37.4991009,3.41133817 36.2148214,3.41133817 C35.4656583,3.41133817 34.7878441,3.59673698 34.1813787,3.93045485 C33.5749133,4.26417271 33.1468201,4.74620962 32.7900758,5.37656559 C32.4690059,6.00692156 32.2906338,6.71143705 32.2906338,7.56427159 C32.2906338,8.41710613 32.4690059,9.12162162 32.7900758,9.75197759 C33.1111457,10.3823336 33.5749133,10.8643705 34.1813787,11.1980883 C34.7878441,11.5318062 35.4656583,11.717205 36.2148214,11.717205 C37.4991009,11.717205 38.6050084,11.1610086 39.4968692,10.0115359 L42.0297539,12.3846407 C41.3519397,13.274555 40.4957533,13.9419908 39.4611947,14.4240277 C38.4266362,14.9060646 37.2850543,15.1285432 36.0007748,15.1285432 C34.538123,15.1285432 33.218169,14.7948253 32.0409127,14.1644693 Z" id="Path"></path>
                    <path d="M52.9104559,12.0138431 L46.9885001,12.0138431 L45.8825926,14.8319051 L41.8513817,14.8319051 L48.0230586,0.296638102 L51.9115718,0.296638102 L58.1189231,14.8319051 L54.0163633,14.8319051 L52.9104559,12.0138431 Z M51.7331996,8.97330257 L49.949478,4.33833223 L48.1657563,8.97330257 L51.7331996,8.97330257 Z" id="Shape"></path>
                    <polygon id="Path" points="59.2248305 0.296638102 63.1846926 0.296638102 63.1846926 11.568886 69.8558115 11.568886 69.8558115 14.8319051 59.2248305 14.8319051 59.2248305 0.296638102"></polygon>
                </g>
                <g id="Group" transform="translate(70.945946, 33.445946)" fill="#FF6500" fill-rule="nonzero">
                    <polygon id="Path" points="4.43502654 3.27227227 0.108171379 3.27227227 0.108171379 0.112112112 12.7642227 0.112112112 12.7642227 3.27227227 8.43736757 3.27227227 8.43736757 14.1891892 4.43502654 14.1891892"></polygon>
                    <polygon id="Path" points="29.2423295 0.112112112 23.1847323 14.1891892 19.2545055 14.1891892 13.2329654 0.112112112 17.5598205 0.112112112 21.3818759 9.26939439 25.3121027 0.112112112"></polygon>
                </g>
            </g>
        </g>
    </g>
</svg>